<svg width="308" height="228" viewBox="0 0 308 228" fill="none" xmlns="http://www.w3.org/2000/svg">
<path d="M60.6756 200.161C64.9257 203.339 87.2831 218.256 91.2742 216.878C92.3158 216.521 102.042 212.462 99.0041 210.189M60.6756 200.161L95.2554 98.5367C90.1947 103.919 85.1161 109.277 80.0371 114.635C69.8836 125.347 59.7286 136.06 49.713 146.973C49.2646 147.461 48.7545 147.983 48.2094 148.542C46.2258 150.575 43.7791 153.083 42.1618 156.094C42.0882 156.09 42.0145 156.085 41.9409 156.081L41.9104 156.58L42.3581 156.803C42.3897 156.739 42.4218 156.675 42.4543 156.612C130.355 161.722 218.67 104.483 260.054 17.4451C267.328 1.131 270.163 0.924985 271.498 1.07307C273.705 1.31779 274.695 3.42254 273.83 5.85561C237.319 108.635 137.521 166.631 41.7323 166.729C41.7053 166.667 41.6791 166.604 41.6537 166.541L41.1902 166.729L41.1896 167.229C41.263 167.229 41.3365 167.229 41.4099 167.229C42.9982 170.584 46.547 173.192 49.1692 175.119C49.6372 175.463 50.0758 175.785 50.4684 176.086C55.5272 179.962 66.3224 187.403 76.7308 194.578C85.7982 200.829 94.5721 206.877 99.0041 210.189M60.6756 200.161L60.9751 199.761C60.9751 199.761 60.9751 199.761 60.9752 199.761M60.6756 200.161L60.9752 199.761M99.0041 210.189L98.7047 210.59C98.7047 210.59 98.7046 210.59 98.7045 210.59M99.0041 210.189L98.7045 210.59M98.7045 210.59C99.0013 210.812 99.078 211.002 99.0881 211.149C99.0997 211.317 99.0332 211.549 98.8167 211.854C98.3785 212.471 97.491 213.159 96.4069 213.826C94.2613 215.147 91.6037 216.237 91.1119 216.405L91.111 216.406C90.9546 216.46 90.7124 216.486 90.364 216.455C90.0209 216.424 89.6061 216.341 89.1234 216.205C88.1579 215.933 86.9674 215.463 85.6163 214.84C82.9165 213.597 79.6326 211.773 76.3285 209.799C69.7205 205.852 63.0837 201.337 60.9752 199.761M98.7045 210.59C94.2808 207.284 85.5146 201.241 76.442 194.987C75.7733 194.526 75.1028 194.063 74.4324 193.601C64.6772 186.875 54.9098 180.119 50.1643 176.483L50.1642 176.483C49.7854 176.192 49.3556 175.876 48.8931 175.536C47.746 174.693 46.3978 173.703 45.126 172.585C43.3353 171.012 41.6224 169.128 40.7268 166.917L40.4479 166.228L41.1909 166.229C136.96 166.349 236.859 108.438 273.359 5.68824L273.78 5.83773L273.359 5.68823C273.758 4.56639 273.71 3.57475 273.365 2.86093C273.028 2.16211 272.383 1.67428 271.443 1.57002C271.161 1.53874 270.831 1.52651 270.373 1.73107C269.897 1.94386 269.247 2.4079 268.382 3.41206C266.647 5.42634 264.144 9.50034 260.511 17.6487L260.506 17.6598L260.506 17.6598C218.961 105.034 130.192 162.472 41.88 157.079L41.1265 157.033L41.4628 156.357C43.1085 153.05 45.7877 150.306 47.8795 148.163C48.4157 147.614 48.9132 147.104 49.3449 146.635M60.9752 199.761C58.9015 198.209 56.7648 196.651 54.5983 195.07C45.4711 188.412 35.8156 181.368 28.1224 172.866C26.3714 170.93 25.0432 169.409 24.1014 168.087C23.1611 166.767 22.6321 165.681 22.445 164.62C22.0717 162.504 23.0215 160.304 25.4538 156.289C30.0543 148.693 35.4268 143.323 41.0688 137.684C43.0496 135.704 45.0636 133.691 47.0892 131.537C51.9167 126.403 56.6523 121.538 61.3912 116.67L61.3947 116.666C66.1317 111.8 70.872 106.93 75.7053 101.79L75.3452 101.452L75.7053 101.79C79.5056 97.7471 84.7406 95.1424 89.6018 95.0827L89.5963 94.6362L89.6018 95.0827L89.7177 95.0812C90.7116 95.068 92.9081 95.0389 94.4406 95.4673C94.8331 95.577 95.1557 95.7102 95.3938 95.8646C95.6307 96.0183 95.7563 96.1744 95.8105 96.3245C95.9112 96.6028 95.8534 97.1703 94.8911 98.1942C89.8334 103.573 84.7562 108.93 79.6778 114.287C69.5227 125 59.363 135.719 49.3449 146.635M49.3449 146.635C49.3448 146.635 49.3447 146.635 49.3446 146.635L49.7112 146.971L49.3449 146.635Z" fill="black" stroke="black"/>
</svg>
