<svg width="726" height="164" viewBox="0 0 726 164" fill="none" xmlns="http://www.w3.org/2000/svg">
<path d="M81.0958 122.376L64.7064 93.408L98.2162 107.949C129.131 119.823 161.118 129.011 193.584 136.166C255.385 149.992 319.001 156.242 382.351 154.305C445.65 152.315 508.779 142.548 569.535 124.545C627.565 107.244 689.612 84.4137 725.498 32.9467L710.127 16.8864C612.676 84.0371 493.598 113.965 376.194 116.065C316.243 117.06 256.303 110.947 197.917 97.1501C170.201 90.6188 143.053 82.2093 116.169 72.5782C98.4218 66.3308 80.6969 59.114 62.6888 52.8108C85.8065 48.3429 109.08 43.9298 130.524 34.3593C144.947 27.7956 138.939 2.70173 123.065 3.60642C85.7823 5.90101 51.0122 23.2876 14.5552 29.437L2.27152 49.7041C12.5116 84.1024 32.5162 114.077 55.4009 141.254C67.1953 155.185 90.1947 137.93 81.0958 122.376Z" fill="#A7A7A7"/>
</svg>
