<svg width="623" height="598" viewBox="0 0 623 598" fill="none" xmlns="http://www.w3.org/2000/svg">
<path d="M67.5444 289.699L65.5831 281.716L54.6791 282.396L53.4641 281.106C42.2694 294.64 42.2796 314.683 40.0764 331.517C37.3009 352.337 35.5865 373.19 33.7236 394.133C32.6504 407.803 47.4731 420.442 60.178 411.102C85.7928 391.987 112.026 375.091 139.607 358.975L145.831 349.391L148.713 347.477L148.836 347.215L148.877 347.128L151.914 340.872L152.133 338.541L151.368 332.876L148.336 328.072L143.748 324.57L139.934 323.294L134.348 323.578L129.044 325.696L128.506 326.387L125.123 327.388L120.874 330.681L120.283 331.401L105.373 334.716C123.522 311.264 142.806 288.705 165.003 268.913C204.365 233.834 251.332 206.642 301.259 189.832C402.392 155.922 523.113 166.292 616.613 217.812L620.593 209.353C521.889 145.918 404.047 126.265 290.745 160.632C208.962 185.404 127.486 241.912 80.9635 317.048L67.5444 289.699Z" fill="#A7A7A7"/>
</svg>
