<svg width="468" height="468" viewBox="0 0 468 468" fill="none" xmlns="http://www.w3.org/2000/svg">
<g clip-path="url(#clip0)">
<path d="M379.281 51.1441C348.254 24.2971 309.565 13.4601 269.577 8.67206C163.068 -25.2999 68.0621 44.9591 26.5781 142.38C-18.1359 247.382 3.13811 364.597 100.094 430.078C199.079 496.924 335.113 469.447 411.044 381.451C494.023 285.274 473.539 132.719 379.281 51.1441ZM196.847 432.703C140.695 424.71 86.2101 390.16 57.7561 340.898C32.3181 296.851 32.5311 241.695 43.9341 193.586C61.4631 119.626 114.502 52.8761 183.822 36.9001C183.926 36.9051 184.012 36.9351 184.117 36.9351C209.067 37.6741 235.409 37.7171 261.163 40.5021C263.601 41.2661 266.043 42.0251 268.495 42.9221C272.557 44.4021 276.107 44.2121 279.083 42.9931C306.864 47.6701 333.396 56.5721 356.034 74.3851C406.113 113.79 432.513 184.846 431.066 247.081C428.354 364.389 307.965 448.516 196.847 432.703Z" fill="#4DD0E1"/>
<path d="M169.276 211.913C192.556 211.913 192.556 175.809 169.276 175.809C145.999 175.808 145.999 211.913 169.276 211.913Z" fill="#4DD0E1"/>
<path d="M293.834 213.715C317.111 213.715 317.111 177.613 293.834 177.613C270.552 177.613 270.552 213.715 293.834 213.715Z" fill="#4DD0E1"/>
<path d="M302.731 274.966C259.481 317.941 203.685 313.655 160.379 273.158C143.399 257.279 117.813 282.756 134.85 298.69C192.475 352.583 270.912 357.477 328.257 300.492C344.792 284.065 319.254 258.544 302.731 274.966Z" fill="#4DD0E1"/>
</g>
<defs>
<clipPath id="clip0">
<rect width="467.276" height="467.276" fill="white"/>
</clipPath>
</defs>
</svg>
